{
  "accessors": [
    {
      "bufferView": 2,
      "componentType": 5126,
      "count": 2596,
      "max": [
        1.9040547609329224,
        4.29559326171875,
        2.3490352630615234
      ],
      "min": [
        -1.9040547609329224,
        -4.29559326171875,
        -2.3490350246429443
      ],
      "type": "VEC3"
    },
    {
      "bufferView": 2,
      "byteOffset": 31152,
      "componentType": 5126,
      "count": 2596,
      "max": [
        1.0,
        1.0,
        1.0
      ],
      "min": [
        -1.0,
        -1.0,
        -1.0
      ],
      "type": "VEC3"
    },
    {
      "bufferView": 1,
      "componentType": 5126,
      "count": 2596,
      "max": [
        0.981793999671936,
        0.9829465746879578
      ],
      "min": [
        0.015184413641691208,
        0.015185404568910599
      ],
      "type": "VEC2"
    },
    {
      "bufferView": 0,
      "componentType": 5125,
      "count": 8424,
      "type": "SCALAR"
    },
    {
      "bufferView": 2,
      "byteOffset": 62304,
      "componentType": 5126,
      "count": 2792,
      "max": [
        1.9331907033920288,
        4.31815767288208,
        2.375227212905884
      ],
      "min": [
        -1.9331907033920288,
        -4.3221893310546875,
        -2.3821065425872803
      ],
      "type": "VEC3"
    },
    {
      "bufferView": 2,
      "byteOffset": 95808,
      "componentType": 5126,
      "count": 2792,
      "max": [
        1.0,
        1.0,
        1.0
      ],
      "min": [
        -1.0,
        -1.0,
        -1.0
      ],
      "type": "VEC3"
    },
    {
      "bufferView": 1,
      "byteOffset": 20768,
      "componentType": 5126,
      "count": 2792,
      "max": [
        0.981793999671936,
        0.9829465746879578
      ],
      "min": [
        0.015184413641691208,
        0.015185404568910599
      ],
      "type": "VEC2"
    },
    {
      "bufferView": 0,
      "byteOffset": 33696,
      "componentType": 5125,
      "count": 8424,
      "type": "SCALAR"
    }
  ],
  "asset": {
    "extras": {
      "author": "SashaSyntraAcc (https://sketchfab.com/SashaSyntraAcc)",
      "license": "SKETCHFAB Standard (https://sketchfab.com/licenses)",
      "source": "https://sketchfab.com/3d-models/low-poly-vespa-with-a-quirky-twist-e3e6e57700484a01a4904b459fd4b08e",
      "title": "Low Poly Vespa with a quirky twist"
    },
    "generator": "Sketchfab-16.56.0",
    "version": "2.0"
  },
  "bufferViews": [
    {
      "buffer": 0,
      "byteLength": 67392,
      "name": "floatBufferViews",
      "target": 34963
    },
    {
      "buffer": 0,
      "byteLength": 43104,
      "byteOffset": 67392,
      "byteStride": 8,
      "name": "floatBufferViews",
      "target": 34962
    },
    {
      "buffer": 0,
      "byteLength": 129312,
      "byteOffset": 110496,
      "byteStride": 12,
      "name": "floatBufferViews",
      "target": 34962
    }
  ],
  "buffers": [
    {
      "byteLength": 239808,
      "uri": "scene.bin"
    }
  ],
  "images": [
    {
      "uri": "textures/RetroTexture.001_baseColor.jpeg"
    }
  ],
  "materials": [
    {
      "name": "RetroTexture.001",
      "pbrMetallicRoughness": {
        "baseColorTexture": {
          "index": 0
        },
        "metallicFactor": 0.0
      }
    }
  ],
  "meshes": [
    {
      "name": "Main_Thruster.003_RetroTexture.001_0",
      "primitives": [
        {
          "attributes": {
            "NORMAL": 1,
            "POSITION": 0,
            "TEXCOORD_0": 2
          },
          "indices": 3,
          "material": 0,
          "mode": 4
        }
      ]
    },
    {
      "name": "Main_Thruster.002_RetroTexture.001_0",
      "primitives": [
        {
          "attributes": {
            "NORMAL": 5,
            "POSITION": 4,
            "TEXCOORD_0": 6
          },
          "indices": 7,
          "material": 0,
          "mode": 4
        }
      ]
    }
  ],
  "nodes": [
    {
      "children": [
        1
      ],
      "matrix": [
        1.0,
        0.0,
        0.0,
        0.0,
        0.0,
        2.220446049250313e-16,
        -1.0,
        0.0,
        0.0,
        1.0,
        2.220446049250313e-16,
        0.0,
        0.0,
        0.0,
        0.0,
        1.0
      ],
      "name": "Sketchfab_model"
    },
    {
      "children": [
        2
      ],
      "matrix": [
        0.009999999776482582,
        0.0,
        0.0,
        0.0,
        0.0,
        0.0,
        0.009999999776482582,
        0.0,
        0.0,
        -0.009999999776482582,
        0.0,
        0.0,
        0.0,
        0.0,
        0.0,
        1.0
      ],
      "name": "f0808a86b71e4a2baa088531368f7253.fbx"
    },
    {
      "children": [
        3,
        5
      ],
      "name": "RootNode"
    },
    {
      "children": [
        4
      ],
      "matrix": [
        100.0,
        0.0,
        0.0,
        0.0,
        0.0,
        -1.629206793918314e-05,
        -99.99999999999868,
        0.0,
        0.0,
        99.99999999999868,
        -1.629206793918314e-05,
        0.0,
        0.0,
        235.34278869628906,
        35.50044250488281,
        1.0
      ],
      "name": "Main_Thruster.003"
    },
    {
      "mesh": 0,
      "name": "Main_Thruster.003_RetroTexture.001_0"
    },
    {
      "children": [
        6
      ],
      "matrix": [
        100.0,
        0.0,
        0.0,
        0.0,
        0.0,
        -1.629206793918314e-05,
        -99.99999999999868,
        0.0,
        0.0,
        99.99999999999868,
        -1.629206793918314e-05,
        0.0,
        0.0,
        235.34278869628906,
        35.50044250488281,
        1.0
      ],
      "name": "Main_Thruster.002"
    },
    {
      "mesh": 1,
      "name": "Main_Thruster.002_RetroTexture.001_0"
    }
  ],
  "samplers": [
    {
      "magFilter": 9728,
      "minFilter": 9986,
      "wrapS": 10497,
      "wrapT": 10497
    }
  ],
  "scene": 0,
  "scenes": [
    {
      "name": "Sketchfab_Scene",
      "nodes": [
        0
      ]
    }
  ],
  "textures": [
    {
      "sampler": 0,
      "source": 0
    }
  ]
}
